# xmcd CD database file
#
# Track frame offsets:
#	150
#	18938
#	34770
#	51680
#	71590
#	96513
#	122270
#	143230
#	158913
#	180730
#	187900
#	219143
#
# Disc length: 3574 seconds
#
# Revision: 0
# Processed by: cddbd v1.5.1PL0 Copyright (c) Steve Scherf et al.
# Submitted via: CDex 1.51
#
DISCID=a40df40c
DTITLE=bouncefrog - LILAC ON THE HILL
DYEAR=2003
DGENRE=Rock
TTITLE0=スパンコール・スター・パレード
TTITLE1=ドクロ旗
TTITLE2=星に願いを
TTITLE3=ミシェル
TTITLE4=バイバイ サブリナ
TTITLE5=バイオリン弾きリリィ
TTITLE6=エンジェルベイビー
TTITLE7=ダニー
TTITLE8=バルテロ
TTITLE9=サッド・セイリング・シップ
TTITLE10=ヴェロニカ
TTITLE11=トラック12
EXTD=YEAR: 2003
EXTT0=
EXTT1=
EXTT2=
EXTT3=
EXTT4=
EXTT5=
EXTT6=
EXTT7=
EXTT8=
EXTT9=
EXTT10=
EXTT11=
PLAYORDER=
